<svg xmlns="http://www.w3.org/2000/svg" viewBox="495 415 950 250">
  <style type="text/css">.st0{fill:#3B65F3;}.st1{fill:#112D56;}</style>
  <g>
    <g>
      <polygon class="st0" points="563.22,484.64 507.87,484.64 507.87,650.75 673.88,650.75 673.88,595.36 563.22,595.36"/>
      <path class="st0" d="M682.86,429.25h-64.31v55.39h55.33v110.73h55.35V475.62C729.23,450.01,708.47,429.25,682.86,429.25z"/>
    </g>
    <g>
      <path class="st1" d="M838.62,590.04c-6.69,0-12.94-1.3-18.74-3.89c-5.8-2.59-10.89-6.28-15.26-11.06c-4.37-4.78-7.82-10.58-10.34-17.41c-2.53-6.83-3.79-14.47-3.79-22.94c0-8.46,1.26-16.11,3.79-22.94c2.53-6.83,5.97-12.63,10.34-17.41c4.37-4.78,9.45-8.47,15.26-11.06c5.8-2.59,12.05-3.89,18.74-3.89c5.73,0,10.61,0.85,14.64,2.56c4.03,1.71,7.41,3.58,10.14,5.63c3.14,2.46,5.8,5.19,7.99,8.19h1.02v-52.23h28.68v143.38h-28.68v-13.31h-1.02c-2.19,3.01-4.85,5.74-7.99,8.19c-2.73,2.05-6.11,3.93-10.14,5.63C849.24,589.18,844.36,590.04,838.62,590.04z M845.79,565.46c7.78,0,14.16-2.66,19.15-7.99c4.98-5.33,7.48-12.9,7.48-22.74c0-9.83-2.49-17.41-7.48-22.74c-4.99-5.33-11.37-7.99-19.15-7.99c-7.24,0-13.31,2.66-18.23,7.99c-4.92,5.32-7.37,12.9-7.37,22.74c0,9.83,2.46,17.41,7.37,22.74C832.48,562.79,838.55,565.46,845.79,565.46z"/>
      <path class="st1" d="M966.64,590.04c-6.69,0-12.94-1.3-18.74-3.89c-5.8-2.59-10.89-6.28-15.26-11.06c-4.37-4.78-7.82-10.58-10.34-17.41c-2.53-6.83-3.79-14.47-3.79-22.94c0-8.46,1.26-16.11,3.79-22.94c2.53-6.83,5.97-12.63,10.34-17.41c4.37-4.78,9.45-8.47,15.26-11.06c5.8-2.59,12.05-3.89,18.74-3.89c5.73,0,10.61,0.85,14.64,2.56c4.03,1.71,7.41,3.58,10.14,5.63c3.14,2.46,5.8,5.19,7.99,8.19h1.02V482.5h28.68v104.46h-28.68v-13.31h-1.02c-2.19,3.01-4.85,5.74-7.99,8.19c-2.73,2.05-6.11,3.93-10.14,5.63C977.25,589.18,972.37,590.04,966.64,590.04z M973.81,565.46c7.78,0,14.16-2.66,19.15-7.99c4.98-5.33,7.48-12.9,7.48-22.74c0-9.83-2.49-17.41-7.48-22.74c-4.99-5.33-11.37-7.99-19.15-7.99c-7.24,0-13.31,2.66-18.23,7.99c-4.92,5.32-7.37,12.9-7.37,22.74c0,9.83,2.46,17.41,7.37,22.74C960.49,562.79,966.57,565.46,973.81,565.46z"/>
      <path class="st1" d="M1056.76,507.08h-13.31V482.5h13.31v-22.53h28.68v22.53h29.7v24.58h-29.7v55.3h30.72v24.58h-59.4V507.08z"/>
      <path class="st1" d="M1146.88,469.19c-4.64,0-8.54-1.54-11.67-4.61c-3.14-3.07-4.71-6.66-4.71-10.75s1.57-7.68,4.71-10.75c3.14-3.07,7.03-4.61,11.67-4.61c4.64,0,8.53,1.54,11.67,4.61c3.14,3.07,4.71,6.66,4.71,10.75s-1.57,7.68-4.71,10.75C1155.42,467.65,1151.52,469.19,1146.88,469.19z M1132.54,482.5h28.68v104.46h-28.68V482.5z"/>
      <path class="st1" d="M1234.96,590.04c-8.19,0-15.81-1.43-22.84-4.3c-7.04-2.87-13.11-6.79-18.23-11.78c-5.12-4.98-9.12-10.86-11.98-17.61c-2.87-6.76-4.3-13.96-4.3-21.61c0-7.65,1.43-14.85,4.3-21.61c2.87-6.76,6.86-12.63,11.98-17.61c5.12-4.98,11.19-8.91,18.23-11.78c7.03-2.87,14.65-4.3,22.84-4.3c8.19,0,15.77,1.43,22.74,4.3c6.96,2.87,13.01,6.79,18.13,11.78c5.12,4.99,9.15,10.86,12.09,17.61c2.93,6.76,4.4,13.96,4.4,21.61c0,7.65-1.47,14.85-4.4,21.61c-2.94,6.76-6.96,12.63-12.09,17.61c-5.12,4.99-11.16,8.91-18.13,11.78C1250.73,588.6,1243.15,590.04,1234.96,590.04z M1234.96,565.46c3.82,0,7.41-0.75,10.75-2.25c3.34-1.5,6.28-3.58,8.81-6.25c2.53-2.66,4.51-5.87,5.94-9.63c1.43-3.75,2.15-7.95,2.15-12.6c0-4.64-0.72-8.84-2.15-12.6c-1.43-3.75-3.41-6.96-5.94-9.63c-2.53-2.66-5.46-4.74-8.81-6.25c-3.35-1.5-6.93-2.25-10.75-2.25c-3.82,0-7.41,0.75-10.75,2.25c-3.35,1.5-6.28,3.58-8.81,6.25c-2.53,2.66-4.51,5.87-5.94,9.63c-1.43,3.76-2.15,7.96-2.15,12.6c0,4.64,0.72,8.84,2.15,12.6c1.43,3.76,3.41,6.96,5.94,9.63c2.53,2.66,5.46,4.75,8.81,6.25C1227.55,564.71,1231.13,565.46,1234.96,565.46z"/>
      <path class="st1" d="M1308.69,482.5h28.68v14.34h1.02c1.91-3.28,4.44-6.15,7.58-8.6c2.73-2.18,6.11-4.2,10.14-6.04c4.03-1.84,9.04-2.77,15.05-2.77c12.83,0,22.87,3.72,30.11,11.16c7.24,7.44,10.86,18.4,10.86,32.88v63.5h-28.68v-59.4c0-7.78-1.91-13.65-5.73-17.61c-3.82-3.96-9.08-5.94-15.77-5.94c-3.28,0-6.42,0.68-9.42,2.05c-3,1.37-5.63,3.24-7.89,5.63c-2.25,2.39-4.03,5.29-5.33,8.71c-1.3,3.41-1.95,7.17-1.95,11.27v55.3h-28.68V482.5z"/>
    </g>
  </g>
</svg>
